# xmcd
#
# Track frame offsets:
#	150
#	13322
#	33197
#	46838
#	61283
#	77009
#	87501
#
# Disc length: 1367 seconds
# Revision: 0
# Processed by: cddbd v1.5.2PL0 Copyright (c) Steve Scherf et al.
# Submitted via: dBpowerAMP V12.0
#
DISCID=4e055507
DTITLE=Molly Tuttle - Rise
DYEAR=2017
DGENRE=Folkl
TTITLE0=Good Enough
TTITLE1=You Didn't Call My Name
TTITLE2=Save This Heart
TTITLE3=Lightning in a Jar
TTITLE4=Friend and a Friend
TTITLE5=Super Moon
TTITLE6=Walden
EXTD=
EXTT0=
EXTT1=
EXTT2=
EXTT3=
EXTT4=
EXTT5=
EXTT6=
PLAYORDER=
